<?xml version="1.0" encoding="utf-8"?>
<!-- Generator: Adobe Illustrator 27.5.0, SVG Export Plug-In . SVG Version: 6.00 Build 0)  -->
<svg version="1.1" xmlns="http://www.w3.org/2000/svg" xmlns:xlink="http://www.w3.org/1999/xlink" x="0px" y="0px"
	 viewBox="0 0 750 500" style="enable-background:new 0 0 750 500;" xml:space="preserve">
<g id="BACKGROUND">
</g>
<g id="OBJECTS">
	<g>
		<linearGradient id="SVGID_1_" gradientUnits="userSpaceOnUse" x1="362.4306" y1="35.3514" x2="389.9597" y2="505.469">
			<stop  offset="0" style="stop-color:#2E2A49"/>
			<stop  offset="1" style="stop-color:#231942"/>
		</linearGradient>
		<rect style="fill:url(#SVGID_1_);" width="750" height="500"/>
		<g>
			
				<linearGradient id="SVGID_00000107588780795080949840000017596396652989837230_" gradientUnits="userSpaceOnUse" x1="230.3796" y1="106.8732" x2="584.7328" y2="229.6968">
				<stop  offset="0" style="stop-color:#2E2A49"/>
				<stop  offset="1" style="stop-color:#231942"/>
			</linearGradient>
			<path style="opacity:0.1;fill:url(#SVGID_00000107588780795080949840000017596396652989837230_);" d="M750,35.526
				c-38.249,89.615-93.788,189.929-157.169,187.765c-68.72-2.346-81.671-122.94-163.412-137.294
				c-114.703-20.142-198.784,198.08-316.372,180.317C59.514,258.227,22.743,204.811,0,160.79c0,39.229,0,78.457,0,117.686
				l750,61.373C750,238.408,750,136.967,750,35.526z"/>
			
				<linearGradient id="SVGID_00000065038752228869116480000005634709341231210639_" gradientUnits="userSpaceOnUse" x1="371.244" y1="364.3359" x2="374.7332" y2="415.9761">
				<stop  offset="0" style="stop-color:#2E2A49"/>
				<stop  offset="1" style="stop-color:#231942"/>
			</linearGradient>
			<polygon style="fill:url(#SVGID_00000065038752228869116480000005634709341231210639_);" points="0,278.476 0,500 750,500 
				750,339.849 			"/>
			<g>
				<defs>
					<rect id="SVGID_00000062887200327595737060000004862922275996382890_" width="750" height="500"/>
				</defs>
				<clipPath id="SVGID_00000021121804622899263210000014606109158229314711_">
					<use xlink:href="#SVGID_00000062887200327595737060000004862922275996382890_"  style="overflow:visible;"/>
				</clipPath>
				<g style="clip-path:url(#SVGID_00000021121804622899263210000014606109158229314711_);">
					
						<linearGradient id="SVGID_00000106111019363742674790000006688293054446233532_" gradientUnits="userSpaceOnUse" x1="559.946" y1="665.5594" x2="516.037" y2="208.1754" gradientTransform="matrix(-1 0 0 -1 750 425.5189)">
						<stop  offset="0" style="stop-color:#2E2A49"/>
						<stop  offset="1" style="stop-color:#5E548E"/>
					</linearGradient>
					<path style="fill:url(#SVGID_00000106111019363742674790000006688293054446233532_);" d="M861.059,287.241v-574.481H-434.863
						v574.481C-301.372,98.046-201.3,61.243-131.579,67.696C-5.83,79.335,15.948,231.199,158.708,254.309
						c148.439,24.03,215.242-125.53,386.642-128.068C669.914,124.397,777.592,201.272,861.059,287.241z"/>
					
						<linearGradient id="SVGID_00000011003007126451467490000008732637431026377663_" gradientUnits="userSpaceOnUse" x1="699.4434" y1="329.8581" x2="816.534" y2="188.3736" gradientTransform="matrix(-1 0 0 -1 750 425.5189)">
						<stop  offset="0" style="stop-color:#2E2A49"/>
						<stop  offset="1" style="stop-color:#5E548E"/>
					</linearGradient>
					<path style="fill:url(#SVGID_00000011003007126451467490000008732637431026377663_);" d="M861.059,85.754v-372.995H-434.863
						V51.139c39.03-31.465,99.598-69.582,173.997-70.041C-56.927-20.158,21.745,262.977,181.864,245.14
						C285.96,233.544,292.128,109.485,505.1,20.128c64.051-26.874,107.62-34.167,150.022-31.712
						C758.131-5.62,830.973,56.525,861.059,85.754z"/>
					
						<linearGradient id="SVGID_00000080168061844585419270000000826950852478409917_" gradientUnits="userSpaceOnUse" x1="838.4666" y1="406.2466" x2="543.3018" y2="479.4281" gradientTransform="matrix(-1 0 0 -1 750 425.5189)">
						<stop  offset="0" style="stop-color:#9F86C0"/>
						<stop  offset="1" style="stop-color:#BE95C4"/>
					</linearGradient>
					<path style="fill:url(#SVGID_00000080168061844585419270000000826950852478409917_);" d="M-434.863-287.241H861.059v463.489
						c-62.331-48.353-153.94-102.097-264.482-101.234c-214.19,1.672-311.822,206.047-447.627,164.658
						C32.316,204.127,50.814,36.935-85.23-31.099c-112.669-56.344-252.264-5.136-348.832,43.909
						C-434.329-87.207-434.596-187.224-434.863-287.241z"/>
					
						<linearGradient id="SVGID_00000163766847198806207130000010782173441966503821_" gradientUnits="userSpaceOnUse" x1="79.2585" y1="295.1574" x2="509.9677" y2="550.6631" gradientTransform="matrix(-1 0 0 -1 750 425.5189)">
						<stop  offset="0" style="stop-color:#9F86C0"/>
						<stop  offset="1" style="stop-color:#5E548E"/>
					</linearGradient>
					<path style="fill:url(#SVGID_00000163766847198806207130000010782173441966503821_);" d="M-434.863-287.241H861.059
						c0,152.328,0,304.656,0,456.984c-64.682-52.8-157.398-109.179-268.141-107.536C383.702,65.311,286.16,272.897,153.829,232.355
						C44.073,198.728,63.46,41.232-65.715-31.099C-179.762-94.958-328.663-47.106-437.111,3.662
						C-436.362-93.305-435.612-190.273-434.863-287.241z"/>
					
						<linearGradient id="SVGID_00000132064595893165893790000014023644833097808785_" gradientUnits="userSpaceOnUse" x1="207.1253" y1="178.4171" x2="327.8745" y2="337.5865" gradientTransform="matrix(-1 0 0 -1 750 425.5189)">
						<stop  offset="0" style="stop-color:#9F86C0"/>
						<stop  offset="1" style="stop-color:#5E548E"/>
					</linearGradient>
					<path style="fill:url(#SVGID_00000132064595893165893790000014023644833097808785_);" d="M861.059,32.211
						c0-106.484,0-212.968,0-319.452H-434.863c-0.508,65.755-1.016,131.509-1.525,197.264
						c104.19-41.016,258.52-81.724,388.859-14.01C87.137-34.025,80.592,91.618,194.079,118.923
						C342.569,154.65,435.115-40.883,649.633-36.587C741.821-34.742,815.719,3.191,861.059,32.211z"/>
					
						<linearGradient id="SVGID_00000083057529919926907260000006766481128775336334_" gradientUnits="userSpaceOnUse" x1="387.9978" y1="849.3379" x2="636.8151" y2="410.2489" gradientTransform="matrix(-1 0 0 -1 750 425.5189)">
						<stop  offset="0" style="stop-color:#9F86C0"/>
						<stop  offset="1" style="stop-color:#BE95C4"/>
					</linearGradient>
					<path style="fill:url(#SVGID_00000083057529919926907260000006766481128775336334_);" d="M-434.863-287.241H861.059
						c-1.563,82.941,1.563,169.446,0,252.387c-52.636-31.262-134.331-68.711-224.232-62.109
						C427.765-81.609,354.351,137.609,194.079,118.923C95.501,107.43,88.383,20.431-43.761-42.076
						c-138.192-65.368-286.138-43.889-391.102-14.636C-434.863-133.555-434.863-210.398-434.863-287.241z"/>
					
						<linearGradient id="SVGID_00000125580140006836982740000010926487364490839186_" gradientUnits="userSpaceOnUse" x1="516.9636" y1="672.6639" x2="614.734" y2="460.8275" gradientTransform="matrix(-1 0 0 -1 750 425.5189)">
						<stop  offset="0" style="stop-color:#2E2A49"/>
						<stop  offset="1" style="stop-color:#231942"/>
					</linearGradient>
					<path style="fill:url(#SVGID_00000125580140006836982740000010926487364490839186_);" d="M861.385-121.356
						c-0.363-55.488-1.352-111.452-0.326-165.885H-434.863v165.885c44.253,12.431,109.115,25.208,186.194,19.515
						c159.353-11.769,205.99-90.298,290.286-68.303C167.483-137.302,151.808,60.81,255.675,80.479
						C361.094,100.441,420.216-95.499,614.872-143.31C711.824-167.123,801.413-144.124,861.385-121.356z"/>
				</g>
				<g style="clip-path:url(#SVGID_00000021121804622899263210000014606109158229314711_);">
					
						<linearGradient id="SVGID_00000029015505104206616800000001474872514668953774_" gradientUnits="userSpaceOnUse" x1="388.9503" y1="509.3408" x2="362.3213" y2="231.9556">
						<stop  offset="0" style="stop-color:#2E2A49"/>
						<stop  offset="1" style="stop-color:#5E548E"/>
					</linearGradient>
					<path style="fill:url(#SVGID_00000029015505104206616800000001474872514668953774_);" d="M-17.987,189.566v348.4h785.925
						v-348.4c-80.957,114.739-141.646,137.059-183.93,133.145c-76.262-7.059-89.469-99.158-176.047-113.173
						c-90.022-14.573-130.536,76.129-234.483,77.668C97.934,288.324,32.632,241.702-17.987,189.566z"/>
					
						<linearGradient id="SVGID_00000037683155596614759800000004115789352666566299_" gradientUnits="userSpaceOnUse" x1="473.5499" y1="305.7513" x2="544.5607" y2="219.9466">
						<stop  offset="0" style="stop-color:#2E2A49"/>
						<stop  offset="1" style="stop-color:#5E548E"/>
					</linearGradient>
					<path style="fill:url(#SVGID_00000037683155596614759800000004115789352666566299_);" d="M-17.987,311.759v226.207h785.925
						V332.752c-23.67,19.082-60.402,42.199-105.522,42.477c-123.681,0.762-171.392-170.949-268.498-160.131
						c-63.13,7.033-66.871,82.27-196.03,136.461c-38.844,16.298-65.267,20.721-90.982,19.232
						C44.434,367.174,0.258,329.486-17.987,311.759z"/>
					
						<linearGradient id="SVGID_00000170960286799713849500000012435787750157196733_" gradientUnits="userSpaceOnUse" x1="557.8621" y1="352.0779" x2="378.8563" y2="396.4596">
						<stop  offset="0" style="stop-color:#9F86C0"/>
						<stop  offset="1" style="stop-color:#BE95C4"/>
					</linearGradient>
					<path style="fill:url(#SVGID_00000170960286799713849500000012435787750157196733_);" d="M767.938,537.966H-17.987V256.878
						c37.801,29.324,93.358,61.918,160.398,61.395c129.898-1.014,189.107-124.959,271.468-99.859
						c70.734,21.557,59.516,122.952,142.021,164.212c68.329,34.171,152.988,3.115,211.552-26.629
						C767.614,416.653,767.776,477.31,767.938,537.966z"/>
					
						<linearGradient id="SVGID_00000132789639516527547340000003023417443381738149_" gradientUnits="userSpaceOnUse" x1="97.4324" y1="284.7067" x2="358.6405" y2="439.6608">
						<stop  offset="0" style="stop-color:#9F86C0"/>
						<stop  offset="1" style="stop-color:#5E548E"/>
					</linearGradient>
					<path style="fill:url(#SVGID_00000132789639516527547340000003023417443381738149_);" d="M767.938,537.966H-17.987
						c0-92.381,0-184.762,0-277.143c39.227,32.021,95.456,66.213,162.617,65.216c126.881-1.882,186.037-127.775,266.29-103.187
						c66.563,20.393,54.806,115.908,133.145,159.774c69.165,38.728,159.467,9.708,225.237-21.081
						C768.847,420.352,768.392,479.159,767.938,537.966z"/>
					
						<linearGradient id="SVGID_00000182505541194172183510000001936961854656629687_" gradientUnits="userSpaceOnUse" x1="174.9785" y1="213.9083" x2="248.2082" y2="310.4383">
						<stop  offset="0" style="stop-color:#9F86C0"/>
						<stop  offset="1" style="stop-color:#5E548E"/>
					</linearGradient>
					<path style="fill:url(#SVGID_00000182505541194172183510000001936961854656629687_);" d="M-17.987,344.231
						c0,64.578,0,129.157,0,193.735h785.925c0.308-39.878,0.616-79.755,0.925-119.633c-63.187,24.874-156.782,49.562-235.828,8.496
						c-81.669-42.429-77.7-118.627-146.525-135.186c-90.054-21.667-146.179,96.916-276.276,94.311
						C54.326,384.835,9.509,361.831-17.987,344.231z"/>
					
						<linearGradient id="SVGID_00000111869427844794589650000015389798091950804869_" gradientUnits="userSpaceOnUse" x1="284.6706" y1="620.7952" x2="435.5684" y2="354.5051">
						<stop  offset="0" style="stop-color:#9F86C0"/>
						<stop  offset="1" style="stop-color:#BE95C4"/>
					</linearGradient>
					<path style="fill:url(#SVGID_00000111869427844794589650000015389798091950804869_);" d="M767.938,537.966H-17.987
						c0.948-50.301-0.948-102.762,0-153.063c31.922,18.959,81.466,41.67,135.988,37.666
						c126.788-9.311,171.31-142.258,268.509-130.926c59.783,6.97,64.1,59.731,144.24,97.64
						c83.808,39.643,173.531,26.617,237.188,8.876C767.938,444.762,767.938,491.364,767.938,537.966z"/>
					
						<linearGradient id="SVGID_00000041296668162892306040000007761418276835374237_" gradientUnits="userSpaceOnUse" x1="362.8832" y1="513.6495" x2="422.1771" y2="385.1791">
						<stop  offset="0" style="stop-color:#2E2A49"/>
						<stop  offset="1" style="stop-color:#231942"/>
					</linearGradient>
					<path style="fill:url(#SVGID_00000041296668162892306040000007761418276835374237_);" d="M-18.185,437.363
						c0.22,33.651,0.82,67.591,0.198,100.602h785.925V437.363c-26.838-7.539-66.174-15.288-112.919-11.835
						c-96.641,7.138-124.924,54.762-176.047,41.423c-76.333-19.917-66.826-140.064-129.817-151.992
						c-63.932-12.107-99.788,106.724-217.839,135.719C72.518,465.119,18.185,451.171-18.185,437.363z"/>
				</g>
			</g>
		</g>
	</g>
</g>
</svg>
