<?xml version="1.0" encoding="utf-8"?>
<!-- Generator: Adobe Illustrator 27.9.0, SVG Export Plug-In . SVG Version: 6.00 Build 0)  -->
<svg version="1.1" id="Layer_1" xmlns="http://www.w3.org/2000/svg" xmlns:xlink="http://www.w3.org/1999/xlink" x="0px" y="0px"
	 viewBox="0 0 750 500" style="enable-background:new 0 0 750 500;" xml:space="preserve">
<style type="text/css">
	.st0{fill:url(#SVGID_1_);}
	.st1{opacity:0.1;fill:url(#SVGID_00000099643521330000710790000000010841396298705310_);enable-background:new    ;}
	.st2{fill:url(#SVGID_00000165221920751559900120000002425756267911376773_);}
	.st3{clip-path:url(#SVGID_00000021078806093334598230000012491647769070117280_);}
	.st4{fill:url(#SVGID_00000038396052089264077090000006141140058681432213_);}
	.st5{fill:url(#SVGID_00000168096369059399110320000006017946444227950262_);}
	.st6{fill:url(#SVGID_00000162314496017440619860000002687780376857973177_);}
	.st7{fill:url(#SVGID_00000180365143462220333380000018029717498713669262_);}
	.st8{fill:url(#SVGID_00000034788521356031912800000008379171209247570354_);}
	.st9{fill:url(#SVGID_00000034799532091099704780000003331780201552921502_);}
	.st10{fill:url(#SVGID_00000171683583230241796770000015144271884129250200_);}
	.st11{clip-path:url(#SVGID_00000039841302775280403540000010912693097170585013_);}
	.st12{fill:url(#SVGID_00000163073743705890791800000005513058077635129224_);}
	.st13{fill:url(#SVGID_00000057117240919935914870000005922943829694662035_);}
	.st14{fill:url(#SVGID_00000178183148930003903890000011928602466290875548_);}
	.st15{fill:url(#SVGID_00000057826847687002318910000010733847890092808627_);}
	.st16{fill:url(#SVGID_00000110466404772275957120000017880424875497755045_);}
	.st17{fill:url(#SVGID_00000036251580508669287590000008416986906658665886_);}
	.st18{fill:url(#SVGID_00000112634543362290799980000017493550525254871219_);}
</style>
<g id="BACKGROUND">
</g>
<g id="OBJECTS">
	<g>
		
			<linearGradient id="SVGID_1_" gradientUnits="userSpaceOnUse" x1="362.4307" y1="466.6486" x2="389.9597" y2="-3.469" gradientTransform="matrix(1 0 0 -1 0 502)">
			<stop  offset="0" style="stop-color:#372A49"/>
			<stop  offset="1" style="stop-color:#311E42"/>
		</linearGradient>
		<rect class="st0" width="750" height="500"/>
		<g>
			
				<linearGradient id="SVGID_00000021101453495217192770000013718049443596628876_" gradientUnits="userSpaceOnUse" x1="230.3795" y1="395.1264" x2="584.7327" y2="272.3029" gradientTransform="matrix(1 0 0 -1 0 502)">
				<stop  offset="0" style="stop-color:#372A49"/>
				<stop  offset="1" style="stop-color:#311E42"/>
			</linearGradient>
			<path style="opacity:0.1;fill:url(#SVGID_00000021101453495217192770000013718049443596628876_);enable-background:new    ;" d="
				M750,35.5c-38.2,89.6-93.8,189.9-157.2,187.8c-68.7-2.3-81.7-122.9-163.4-137.3C314.7,65.9,230.6,284.1,113,266.3
				c-53.5-8.1-90.3-61.5-113-105.5c0,39.2,0,78.5,0,117.7l750,61.4C750,238.4,750,137,750,35.5z"/>
			
				<linearGradient id="SVGID_00000020395283237348814280000003081257760606408336_" gradientUnits="userSpaceOnUse" x1="371.244" y1="137.6641" x2="374.7332" y2="86.0239" gradientTransform="matrix(1 0 0 -1 0 502)">
				<stop  offset="0" style="stop-color:#372A49"/>
				<stop  offset="1" style="stop-color:#311E42"/>
			</linearGradient>
			<polygon style="fill:url(#SVGID_00000020395283237348814280000003081257760606408336_);" points="0,278.5 0,500 750,500 
				750,339.8 			"/>
			<g>
				<g>
					<defs>
						<rect id="SVGID_00000062156181086184699570000010632313454181997485_" width="750" height="500"/>
					</defs>
					<clipPath id="SVGID_00000164471726451553113790000007688615488470913953_">
						<use xlink:href="#SVGID_00000062156181086184699570000010632313454181997485_"  style="overflow:visible;"/>
					</clipPath>
					<g style="clip-path:url(#SVGID_00000164471726451553113790000007688615488470913953_);">
						
							<linearGradient id="SVGID_00000036231456361828635860000014079558325563398581_" gradientUnits="userSpaceOnUse" x1="-608.054" y1="414.4406" x2="-651.963" y2="871.8246" gradientTransform="matrix(-1 0 0 1 -418 -654.4811)">
							<stop  offset="0" style="stop-color:#372A49"/>
							<stop  offset="1" style="stop-color:#5D328E"/>
						</linearGradient>
						<path style="fill:url(#SVGID_00000036231456361828635860000014079558325563398581_);" d="M861.1,287.2v-574.5H-434.9v574.5
							C-301.4,98-201.3,61.2-131.6,67.7C-5.8,79.3,15.9,231.2,158.7,254.3c148.4,24,215.2-125.5,386.6-128.1
							C669.9,124.4,777.6,201.3,861.1,287.2z"/>
						
							<linearGradient id="SVGID_00000117673088689019998860000008546143056054717317_" gradientUnits="userSpaceOnUse" x1="-468.5566" y1="750.1419" x2="-351.466" y2="891.6264" gradientTransform="matrix(-1 0 0 1 -418 -654.4811)">
							<stop  offset="0" style="stop-color:#372A49"/>
							<stop  offset="1" style="stop-color:#5D328E"/>
						</linearGradient>
						<path style="fill:url(#SVGID_00000117673088689019998860000008546143056054717317_);" d="M861.1,85.8v-373H-434.9V51.1
							c39-31.5,99.6-69.6,174-70c203.9-1.3,282.6,281.9,442.7,264c104.1-11.6,110.3-135.7,323.2-225c64.1-26.9,107.6-34.2,150-31.7
							C758.1-5.6,831,56.5,861.1,85.8z"/>
						
							<linearGradient id="SVGID_00000026871165257154943500000004628044565674054017_" gradientUnits="userSpaceOnUse" x1="-329.5333" y1="673.7529" x2="-624.6981" y2="600.5714" gradientTransform="matrix(-1 0 0 1 -418 -654.4811)">
							<stop  offset="0" style="stop-color:#B686C0"/>
							<stop  offset="1" style="stop-color:#C495B2"/>
						</linearGradient>
						<path style="fill:url(#SVGID_00000026871165257154943500000004628044565674054017_);" d="M-434.9-287.2H861.1v463.5
							C798.7,127.9,707.1,74.2,596.6,75c-214.2,1.7-311.8,206-447.6,164.7C32.3,204.1,50.8,36.9-85.2-31.1
							c-112.7-56.3-252.3-5.1-348.8,43.9C-434.3-87.2-434.6-187.2-434.9-287.2z"/>
						
							<linearGradient id="SVGID_00000150074523474398850810000007650447377725173146_" gradientUnits="userSpaceOnUse" x1="-1088.7417" y1="784.8422" x2="-658.0325" y2="529.3365" gradientTransform="matrix(-1 0 0 1 -418 -654.4811)">
							<stop  offset="0" style="stop-color:#B686C0"/>
							<stop  offset="1" style="stop-color:#5D328E"/>
						</linearGradient>
						<path style="fill:url(#SVGID_00000150074523474398850810000007650447377725173146_);" d="M-434.9-287.2H861.1
							c0,152.3,0,304.7,0,457C796.4,116.9,703.7,60.6,592.9,62.2c-209.2,3.1-306.8,210.7-439.1,170.1
							C44.1,198.7,63.5,41.2-65.7-31.1c-114-63.9-262.9-16-371.4,34.8C-436.4-93.3-435.6-190.3-434.9-287.2z"/>
						
							<linearGradient id="SVGID_00000165213198265116418970000012686508574651215276_" gradientUnits="userSpaceOnUse" x1="-960.8748" y1="901.5829" x2="-840.1255" y2="742.4135" gradientTransform="matrix(-1 0 0 1 -418 -654.4811)">
							<stop  offset="0" style="stop-color:#B686C0"/>
							<stop  offset="1" style="stop-color:#5D328E"/>
						</linearGradient>
						<path style="fill:url(#SVGID_00000165213198265116418970000012686508574651215276_);" d="M861.1,32.2c0-106.5,0-213,0-319.5
							H-434.9c-0.5,65.8-1,131.5-1.5,197.3c104.2-41,258.5-81.7,388.9-14C87.1-34,80.6,91.6,194.1,118.9
							c148.5,35.7,241-159.8,455.6-155.5C741.8-34.7,815.7,3.2,861.1,32.2z"/>
						
							<linearGradient id="SVGID_00000173126942732491404060000002455008987090784437_" gradientUnits="userSpaceOnUse" x1="-780.002" y1="230.662" x2="-531.1848" y2="669.751" gradientTransform="matrix(-1 0 0 1 -418 -654.4811)">
							<stop  offset="0" style="stop-color:#B686C0"/>
							<stop  offset="1" style="stop-color:#C495B2"/>
						</linearGradient>
						<path style="fill:url(#SVGID_00000173126942732491404060000002455008987090784437_);" d="M-434.9-287.2H861.1
							c-1.6,82.9,1.6,169.4,0,252.4C808.4-66.1,726.7-103.6,636.8-97C427.8-81.6,354.4,137.6,194.1,118.9
							C95.5,107.4,88.4,20.4-43.8-42.1C-182-107.4-329.9-86-434.9-56.7C-434.9-133.6-434.9-210.4-434.9-287.2z"/>
						
							<linearGradient id="SVGID_00000076578715166607726990000014179344773244723358_" gradientUnits="userSpaceOnUse" x1="-651.0363" y1="407.3361" x2="-553.2659" y2="619.1724" gradientTransform="matrix(-1 0 0 1 -418 -654.4811)">
							<stop  offset="0" style="stop-color:#372A49"/>
							<stop  offset="1" style="stop-color:#311E42"/>
						</linearGradient>
						<path style="fill:url(#SVGID_00000076578715166607726990000014179344773244723358_);" d="M861.4-121.4
							c-0.4-55.5-1.4-111.5-0.3-165.9H-434.9v165.9c44.3,12.4,109.1,25.2,186.2,19.5c159.4-11.8,206-90.3,290.3-68.3
							c125.9,32.8,110.2,231,214.1,250.6c105.4,20,164.5-176,359.2-223.8C711.8-167.1,801.4-144.1,861.4-121.4z"/>
					</g>
				</g>
				<g>
					<defs>
						<rect id="SVGID_00000042735309908630875710000007000680624448879530_" width="750" height="500"/>
					</defs>
					<clipPath id="SVGID_00000088098405803513969530000002604070993251696040_">
						<use xlink:href="#SVGID_00000042735309908630875710000007000680624448879530_"  style="overflow:visible;"/>
					</clipPath>
					<g style="clip-path:url(#SVGID_00000088098405803513969530000002604070993251696040_);">
						
							<linearGradient id="SVGID_00000053506522121214101600000015672403055600445829_" gradientUnits="userSpaceOnUse" x1="388.9507" y1="-7.3408" x2="362.3217" y2="270.0444" gradientTransform="matrix(1 0 0 -1 0 502)">
							<stop  offset="0" style="stop-color:#372A49"/>
							<stop  offset="1" style="stop-color:#5D328E"/>
						</linearGradient>
						<path style="fill:url(#SVGID_00000053506522121214101600000015672403055600445829_);" d="M-18,189.6V538h785.9V189.6
							C687,304.3,626.3,326.6,584,322.7c-76.3-7.1-89.5-99.2-176-113.2c-90-14.6-130.5,76.1-234.5,77.7
							C97.9,288.3,32.6,241.7-18,189.6z"/>
						
							<linearGradient id="SVGID_00000139262362082448460570000001947362056968483757_" gradientUnits="userSpaceOnUse" x1="473.5501" y1="196.2485" x2="544.561" y2="282.0532" gradientTransform="matrix(1 0 0 -1 0 502)">
							<stop  offset="0" style="stop-color:#372A49"/>
							<stop  offset="1" style="stop-color:#5D328E"/>
						</linearGradient>
						<path style="fill:url(#SVGID_00000139262362082448460570000001947362056968483757_);" d="M-18,311.8V538h785.9V332.8
							c-23.7,19.1-60.4,42.2-105.5,42.5C538.7,376,491,204.3,393.9,215.1c-63.1,7-66.9,82.3-196,136.5c-38.8,16.3-65.3,20.7-91,19.2
							C44.4,367.2,0.3,329.5-18,311.8z"/>
						
							<linearGradient id="SVGID_00000161613980124157443000000017787767008508677511_" gradientUnits="userSpaceOnUse" x1="557.8622" y1="149.9219" x2="378.8564" y2="105.5402" gradientTransform="matrix(1 0 0 -1 0 502)">
							<stop  offset="0" style="stop-color:#B686C0"/>
							<stop  offset="1" style="stop-color:#C495B2"/>
						</linearGradient>
						<path style="fill:url(#SVGID_00000161613980124157443000000017787767008508677511_);" d="M767.9,538H-18V256.9
							c37.8,29.3,93.4,61.9,160.4,61.4c129.9-1,189.1-125,271.5-99.9c70.7,21.6,59.5,123,142,164.2c68.3,34.2,153,3.1,211.6-26.6
							C767.6,416.7,767.8,477.3,767.9,538z"/>
						
							<linearGradient id="SVGID_00000055702174397695499830000016474150196380640413_" gradientUnits="userSpaceOnUse" x1="97.4325" y1="217.2934" x2="358.6406" y2="62.3393" gradientTransform="matrix(1 0 0 -1 0 502)">
							<stop  offset="0" style="stop-color:#B686C0"/>
							<stop  offset="1" style="stop-color:#5D328E"/>
						</linearGradient>
						<path style="fill:url(#SVGID_00000055702174397695499830000016474150196380640413_);" d="M767.9,538H-18
							c0-92.4,0-184.8,0-277.1c39.2,32,95.5,66.2,162.6,65.2c126.9-1.9,186-127.8,266.3-103.2c66.6,20.4,54.8,115.9,133.1,159.8
							c69.2,38.7,159.5,9.7,225.2-21.1C768.8,420.4,768.4,479.2,767.9,538z"/>
						
							<linearGradient id="SVGID_00000127017634593935294390000016882619290902265257_" gradientUnits="userSpaceOnUse" x1="174.9788" y1="288.0919" x2="248.2085" y2="191.562" gradientTransform="matrix(1 0 0 -1 0 502)">
							<stop  offset="0" style="stop-color:#B686C0"/>
							<stop  offset="1" style="stop-color:#5D328E"/>
						</linearGradient>
						<path style="fill:url(#SVGID_00000127017634593935294390000016882619290902265257_);" d="M-18,344.2c0,64.6,0,129.2,0,193.7
							h785.9c0.3-39.9,0.6-79.8,0.9-119.6c-63.2,24.9-156.8,49.6-235.8,8.5c-81.7-42.4-77.7-118.6-146.5-135.2
							C296.5,270,240.3,388.6,110.2,386C54.3,384.8,9.5,361.8-18,344.2z"/>
						
							<linearGradient id="SVGID_00000146484637871396901900000000425761981179409810_" gradientUnits="userSpaceOnUse" x1="284.6709" y1="-118.7954" x2="435.5688" y2="147.4947" gradientTransform="matrix(1 0 0 -1 0 502)">
							<stop  offset="0" style="stop-color:#B686C0"/>
							<stop  offset="1" style="stop-color:#C495B2"/>
						</linearGradient>
						<path style="fill:url(#SVGID_00000146484637871396901900000000425761981179409810_);" d="M767.9,538H-18
							c0.9-50.3-0.9-102.8,0-153.1c31.9,19,81.5,41.7,136,37.7c126.8-9.3,171.3-142.3,268.5-130.9c59.8,7,64.1,59.7,144.2,97.6
							c83.8,39.6,173.5,26.6,237.2,8.9C767.9,444.8,767.9,491.4,767.9,538z"/>
						
							<linearGradient id="SVGID_00000005980616003642366950000004946056328665795243_" gradientUnits="userSpaceOnUse" x1="362.8832" y1="-11.6495" x2="422.1771" y2="116.8209" gradientTransform="matrix(1 0 0 -1 0 502)">
							<stop  offset="0" style="stop-color:#372A49"/>
							<stop  offset="1" style="stop-color:#311E42"/>
						</linearGradient>
						<path style="fill:url(#SVGID_00000005980616003642366950000004946056328665795243_);" d="M-18.2,437.4
							C-18,471-17.4,505-18,538h785.9V437.4c-26.8-7.5-66.2-15.3-112.9-11.8c-96.6,7.1-124.9,54.8-176,41.4
							c-76.3-19.9-66.8-140.1-129.8-152c-63.9-12.1-99.8,106.7-217.8,135.7C72.5,465.1,18.2,451.2-18.2,437.4z"/>
					</g>
				</g>
			</g>
		</g>
	</g>
</g>
</svg>
