<?xml version="1.0" encoding="utf-8"?>
<!-- Generator: Adobe Illustrator 27.9.0, SVG Export Plug-In . SVG Version: 6.00 Build 0)  -->
<svg version="1.1" id="Layer_1" xmlns="http://www.w3.org/2000/svg" xmlns:xlink="http://www.w3.org/1999/xlink" x="0px" y="0px"
	 viewBox="0 0 750 500" style="enable-background:new 0 0 750 500;" xml:space="preserve">
<style type="text/css">
	.st0{fill:url(#SVGID_1_);}
	.st1{opacity:0.1;fill:url(#SVGID_00000072966588768391408580000002951193421845187472_);enable-background:new    ;}
	.st2{fill:url(#SVGID_00000125599145219638069090000004565430279056479911_);}
	.st3{clip-path:url(#SVGID_00000101812233464196001700000017367518300411974054_);}
	.st4{fill:url(#SVGID_00000072249544060627491850000011635399510718155442_);}
	.st5{fill:url(#SVGID_00000170260771944310479240000005258223774502890409_);}
	.st6{fill:url(#SVGID_00000029749838489811187010000000516920687869722015_);}
	.st7{fill:url(#SVGID_00000158750334044782402650000012395814057859345550_);}
	.st8{fill:url(#SVGID_00000140720204265911954800000004216604327761204393_);}
	.st9{fill:url(#SVGID_00000155833977783342504770000014893026527042918810_);}
	.st10{fill:url(#SVGID_00000033371304002191609390000000634212690143503279_);}
	.st11{clip-path:url(#SVGID_00000135653892937193022360000008214054517553245624_);}
	.st12{fill:url(#SVGID_00000091000367583577476980000004172567460439163528_);}
	.st13{fill:url(#SVGID_00000110438861856800245190000006351062123466745507_);}
	.st14{fill:url(#SVGID_00000030450112634546459880000013624746613719870104_);}
	.st15{fill:url(#SVGID_00000111175836132634259050000009267949551607216545_);}
	.st16{fill:url(#SVGID_00000071548127298956008800000014951980036595148674_);}
	.st17{fill:url(#SVGID_00000106867257707237641340000008631172168426476175_);}
	.st18{fill:url(#SVGID_00000038390457318163570660000006868908585307508155_);}
</style>
<g id="BACKGROUND">
</g>
<g id="OBJECTS">
	<g>
		
			<linearGradient id="SVGID_1_" gradientUnits="userSpaceOnUse" x1="362.4307" y1="466.6486" x2="389.9597" y2="-3.469" gradientTransform="matrix(1 0 0 -1 0 502)">
			<stop  offset="0" style="stop-color:#492531"/>
			<stop  offset="1" style="stop-color:#421A1F"/>
		</linearGradient>
		<rect class="st0" width="750" height="500"/>
		<g>
			
				<linearGradient id="SVGID_00000160882109153071715050000014949771443001280679_" gradientUnits="userSpaceOnUse" x1="230.3795" y1="395.1264" x2="584.7327" y2="272.3029" gradientTransform="matrix(1 0 0 -1 0 502)">
				<stop  offset="0" style="stop-color:#492531"/>
				<stop  offset="1" style="stop-color:#421A1F"/>
			</linearGradient>
			<path style="opacity:0.1;fill:url(#SVGID_00000160882109153071715050000014949771443001280679_);enable-background:new    ;" d="
				M750,35.5c-38.2,89.6-93.8,189.9-157.2,187.8c-68.7-2.3-81.7-122.9-163.4-137.3C314.7,65.9,230.6,284.1,113,266.3
				c-53.5-8.1-90.3-61.5-113-105.5c0,39.2,0,78.5,0,117.7l750,61.4C750,238.4,750,137,750,35.5z"/>
			
				<linearGradient id="SVGID_00000159431618740909101650000015522520278102286779_" gradientUnits="userSpaceOnUse" x1="371.244" y1="137.6641" x2="374.7332" y2="86.0239" gradientTransform="matrix(1 0 0 -1 0 502)">
				<stop  offset="0" style="stop-color:#492531"/>
				<stop  offset="1" style="stop-color:#421A1F"/>
			</linearGradient>
			<polygon style="fill:url(#SVGID_00000159431618740909101650000015522520278102286779_);" points="0,278.5 0,500 750,500 
				750,339.8 			"/>
			<g>
				<g>
					<defs>
						<rect id="SVGID_00000006698234840772410420000010146674295981794970_" width="750" height="500"/>
					</defs>
					<clipPath id="SVGID_00000059995957135637214100000017702131057036244364_">
						<use xlink:href="#SVGID_00000006698234840772410420000010146674295981794970_"  style="overflow:visible;"/>
					</clipPath>
					<g style="clip-path:url(#SVGID_00000059995957135637214100000017702131057036244364_);">
						
							<linearGradient id="SVGID_00000137134064773913811590000011540758257438637209_" gradientUnits="userSpaceOnUse" x1="-608.054" y1="414.4406" x2="-651.963" y2="871.8246" gradientTransform="matrix(-1 0 0 1 -418 -654.4811)">
							<stop  offset="0" style="stop-color:#492531"/>
							<stop  offset="1" style="stop-color:#8E3D52"/>
						</linearGradient>
						<path style="fill:url(#SVGID_00000137134064773913811590000011540758257438637209_);" d="M861.1,287.2v-574.5H-434.9v574.5
							C-301.4,98-201.3,61.2-131.6,67.7C-5.8,79.3,15.9,231.2,158.7,254.3c148.4,24,215.2-125.5,386.6-128.1
							C669.9,124.4,777.6,201.3,861.1,287.2z"/>
						
							<linearGradient id="SVGID_00000145749677138440583850000015030688946156801685_" gradientUnits="userSpaceOnUse" x1="-468.5566" y1="750.1419" x2="-351.466" y2="891.6264" gradientTransform="matrix(-1 0 0 1 -418 -654.4811)">
							<stop  offset="0" style="stop-color:#492531"/>
							<stop  offset="1" style="stop-color:#8E3D52"/>
						</linearGradient>
						<path style="fill:url(#SVGID_00000145749677138440583850000015030688946156801685_);" d="M861.1,85.8v-373H-434.9V51.1
							c39-31.5,99.6-69.6,174-70c203.9-1.3,282.6,281.9,442.7,264c104.1-11.6,110.3-135.7,323.2-225c64.1-26.9,107.6-34.2,150-31.7
							C758.1-5.6,831,56.5,861.1,85.8z"/>
						
							<linearGradient id="SVGID_00000141413122654742644390000011081420867562367112_" gradientUnits="userSpaceOnUse" x1="-329.5333" y1="673.7529" x2="-624.6981" y2="600.5714" gradientTransform="matrix(-1 0 0 1 -418 -654.4811)">
							<stop  offset="0" style="stop-color:#C07E79"/>
							<stop  offset="1" style="stop-color:#C49987"/>
						</linearGradient>
						<path style="fill:url(#SVGID_00000141413122654742644390000011081420867562367112_);" d="M-434.9-287.2H861.1v463.5
							C798.7,127.9,707.1,74.2,596.6,75c-214.2,1.7-311.8,206-447.6,164.7C32.3,204.1,50.8,36.9-85.2-31.1
							c-112.7-56.3-252.3-5.1-348.8,43.9C-434.3-87.2-434.6-187.2-434.9-287.2z"/>
						
							<linearGradient id="SVGID_00000169519700589557329240000006526238130247745979_" gradientUnits="userSpaceOnUse" x1="-1088.7417" y1="784.8422" x2="-658.0325" y2="529.3365" gradientTransform="matrix(-1 0 0 1 -418 -654.4811)">
							<stop  offset="0" style="stop-color:#C07E79"/>
							<stop  offset="1" style="stop-color:#8E3D52"/>
						</linearGradient>
						<path style="fill:url(#SVGID_00000169519700589557329240000006526238130247745979_);" d="M-434.9-287.2H861.1
							c0,152.3,0,304.7,0,457C796.4,116.9,703.7,60.6,592.9,62.2c-209.2,3.1-306.8,210.7-439.1,170.1
							C44.1,198.7,63.5,41.2-65.7-31.1c-114-63.9-262.9-16-371.4,34.8C-436.4-93.3-435.6-190.3-434.9-287.2z"/>
						
							<linearGradient id="SVGID_00000090996014464963256050000015422843346758578832_" gradientUnits="userSpaceOnUse" x1="-960.8748" y1="901.5829" x2="-840.1255" y2="742.4135" gradientTransform="matrix(-1 0 0 1 -418 -654.4811)">
							<stop  offset="0" style="stop-color:#C07E79"/>
							<stop  offset="1" style="stop-color:#8E3D52"/>
						</linearGradient>
						<path style="fill:url(#SVGID_00000090996014464963256050000015422843346758578832_);" d="M861.1,32.2c0-106.5,0-213,0-319.5
							H-434.9c-0.5,65.8-1,131.5-1.5,197.3c104.2-41,258.5-81.7,388.9-14C87.1-34,80.6,91.6,194.1,118.9
							c148.5,35.7,241-159.8,455.6-155.5C741.8-34.7,815.7,3.2,861.1,32.2z"/>
						
							<linearGradient id="SVGID_00000096061168013504112580000006040479639312697017_" gradientUnits="userSpaceOnUse" x1="-780.002" y1="230.662" x2="-531.1848" y2="669.751" gradientTransform="matrix(-1 0 0 1 -418 -654.4811)">
							<stop  offset="0" style="stop-color:#C07E79"/>
							<stop  offset="1" style="stop-color:#C49987"/>
						</linearGradient>
						<path style="fill:url(#SVGID_00000096061168013504112580000006040479639312697017_);" d="M-434.9-287.2H861.1
							c-1.6,82.9,1.6,169.4,0,252.4C808.4-66.1,726.7-103.6,636.8-97C427.8-81.6,354.4,137.6,194.1,118.9
							C95.5,107.4,88.4,20.4-43.8-42.1C-182-107.4-329.9-86-434.9-56.7C-434.9-133.6-434.9-210.4-434.9-287.2z"/>
						
							<linearGradient id="SVGID_00000168086649015563420480000014994941286562503601_" gradientUnits="userSpaceOnUse" x1="-651.0363" y1="407.3361" x2="-553.2659" y2="619.1724" gradientTransform="matrix(-1 0 0 1 -418 -654.4811)">
							<stop  offset="0" style="stop-color:#492531"/>
							<stop  offset="1" style="stop-color:#421A1F"/>
						</linearGradient>
						<path style="fill:url(#SVGID_00000168086649015563420480000014994941286562503601_);" d="M861.4-121.4
							c-0.4-55.5-1.4-111.5-0.3-165.9H-434.9v165.9c44.3,12.4,109.1,25.2,186.2,19.5c159.4-11.8,206-90.3,290.3-68.3
							c125.9,32.8,110.2,231,214.1,250.6c105.4,20,164.5-176,359.2-223.8C711.8-167.1,801.4-144.1,861.4-121.4z"/>
					</g>
				</g>
				<g>
					<defs>
						<rect id="SVGID_00000133490784907198536940000015723233958643909557_" width="750" height="500"/>
					</defs>
					<clipPath id="SVGID_00000076579960824485003850000015832664620960805276_">
						<use xlink:href="#SVGID_00000133490784907198536940000015723233958643909557_"  style="overflow:visible;"/>
					</clipPath>
					<g style="clip-path:url(#SVGID_00000076579960824485003850000015832664620960805276_);">
						
							<linearGradient id="SVGID_00000052080633650196214530000003299190925653389498_" gradientUnits="userSpaceOnUse" x1="388.9507" y1="-7.3408" x2="362.3217" y2="270.0444" gradientTransform="matrix(1 0 0 -1 0 502)">
							<stop  offset="0" style="stop-color:#492531"/>
							<stop  offset="1" style="stop-color:#8E3D52"/>
						</linearGradient>
						<path style="fill:url(#SVGID_00000052080633650196214530000003299190925653389498_);" d="M-18,189.6V538h785.9V189.6
							C687,304.3,626.3,326.6,584,322.7c-76.3-7.1-89.5-99.2-176-113.2c-90-14.6-130.5,76.1-234.5,77.7
							C97.9,288.3,32.6,241.7-18,189.6z"/>
						
							<linearGradient id="SVGID_00000137823764883652835110000009386777437781933992_" gradientUnits="userSpaceOnUse" x1="473.5501" y1="196.2485" x2="544.561" y2="282.0532" gradientTransform="matrix(1 0 0 -1 0 502)">
							<stop  offset="0" style="stop-color:#492531"/>
							<stop  offset="1" style="stop-color:#8E3D52"/>
						</linearGradient>
						<path style="fill:url(#SVGID_00000137823764883652835110000009386777437781933992_);" d="M-18,311.8V538h785.9V332.8
							c-23.7,19.1-60.4,42.2-105.5,42.5C538.7,376,491,204.3,393.9,215.1c-63.1,7-66.9,82.3-196,136.5c-38.8,16.3-65.3,20.7-91,19.2
							C44.4,367.2,0.3,329.5-18,311.8z"/>
						
							<linearGradient id="SVGID_00000163767286341873290870000005058591982261476017_" gradientUnits="userSpaceOnUse" x1="557.8622" y1="149.9219" x2="378.8564" y2="105.5402" gradientTransform="matrix(1 0 0 -1 0 502)">
							<stop  offset="0" style="stop-color:#C07E79"/>
							<stop  offset="1" style="stop-color:#C49987"/>
						</linearGradient>
						<path style="fill:url(#SVGID_00000163767286341873290870000005058591982261476017_);" d="M767.9,538H-18V256.9
							c37.8,29.3,93.4,61.9,160.4,61.4c129.9-1,189.1-125,271.5-99.9c70.7,21.6,59.5,123,142,164.2c68.3,34.2,153,3.1,211.6-26.6
							C767.6,416.7,767.8,477.3,767.9,538z"/>
						
							<linearGradient id="SVGID_00000021816922680315149730000003028504769430311041_" gradientUnits="userSpaceOnUse" x1="97.4325" y1="217.2934" x2="358.6406" y2="62.3393" gradientTransform="matrix(1 0 0 -1 0 502)">
							<stop  offset="0" style="stop-color:#C07E79"/>
							<stop  offset="1" style="stop-color:#8E3D52"/>
						</linearGradient>
						<path style="fill:url(#SVGID_00000021816922680315149730000003028504769430311041_);" d="M767.9,538H-18
							c0-92.4,0-184.8,0-277.1c39.2,32,95.5,66.2,162.6,65.2c126.9-1.9,186-127.8,266.3-103.2c66.6,20.4,54.8,115.9,133.1,159.8
							c69.2,38.7,159.5,9.7,225.2-21.1C768.8,420.4,768.4,479.2,767.9,538z"/>
						
							<linearGradient id="SVGID_00000033362362361788812700000004726215439882125456_" gradientUnits="userSpaceOnUse" x1="174.9788" y1="288.0919" x2="248.2085" y2="191.562" gradientTransform="matrix(1 0 0 -1 0 502)">
							<stop  offset="0" style="stop-color:#C07E79"/>
							<stop  offset="1" style="stop-color:#8E3D52"/>
						</linearGradient>
						<path style="fill:url(#SVGID_00000033362362361788812700000004726215439882125456_);" d="M-18,344.2c0,64.6,0,129.2,0,193.7
							h785.9c0.3-39.9,0.6-79.8,0.9-119.6c-63.2,24.9-156.8,49.6-235.8,8.5c-81.7-42.4-77.7-118.6-146.5-135.2
							C296.5,270,240.3,388.6,110.2,386C54.3,384.8,9.5,361.8-18,344.2z"/>
						
							<linearGradient id="SVGID_00000101082200676080361970000004676125302247160999_" gradientUnits="userSpaceOnUse" x1="284.6709" y1="-118.7954" x2="435.5688" y2="147.4947" gradientTransform="matrix(1 0 0 -1 0 502)">
							<stop  offset="0" style="stop-color:#C07E79"/>
							<stop  offset="1" style="stop-color:#C49987"/>
						</linearGradient>
						<path style="fill:url(#SVGID_00000101082200676080361970000004676125302247160999_);" d="M767.9,538H-18
							c0.9-50.3-0.9-102.8,0-153.1c31.9,19,81.5,41.7,136,37.7c126.8-9.3,171.3-142.3,268.5-130.9c59.8,7,64.1,59.7,144.2,97.6
							c83.8,39.6,173.5,26.6,237.2,8.9C767.9,444.8,767.9,491.4,767.9,538z"/>
						
							<linearGradient id="SVGID_00000166669749905692782910000014265295758100823996_" gradientUnits="userSpaceOnUse" x1="362.8832" y1="-11.6495" x2="422.1771" y2="116.8209" gradientTransform="matrix(1 0 0 -1 0 502)">
							<stop  offset="0" style="stop-color:#492531"/>
							<stop  offset="1" style="stop-color:#421A1F"/>
						</linearGradient>
						<path style="fill:url(#SVGID_00000166669749905692782910000014265295758100823996_);" d="M-18.2,437.4
							C-18,471-17.4,505-18,538h785.9V437.4c-26.8-7.5-66.2-15.3-112.9-11.8c-96.6,7.1-124.9,54.8-176,41.4
							c-76.3-19.9-66.8-140.1-129.8-152c-63.9-12.1-99.8,106.7-217.8,135.7C72.5,465.1,18.2,451.2-18.2,437.4z"/>
					</g>
				</g>
			</g>
		</g>
	</g>
</g>
</svg>
